<?xml version="1.0" encoding="utf-8"?>
<!-- Generator: Adobe Illustrator 28.0.0, SVG Export Plug-In . SVG Version: 6.00 Build 0)  -->
<svg version="1.1" id="Capa_1" xmlns="http://www.w3.org/2000/svg" xmlns:xlink="http://www.w3.org/1999/xlink" x="0px" y="0px"
	 viewBox="0 0 170 50" style="enable-background:new 0 0 170 50;" xml:space="preserve">
<style type="text/css">
	.st0{opacity:0.8;}
	.st1{fill:#FFFFFF;}
	.st2{fill-rule:evenodd;clip-rule:evenodd;fill:#FFFFFF;}
</style>
<g class="st0">
	<g>
		<g>
			<path class="st1" d="M69.7,30.4h-3l-5.9-9.7v9.7h-3V15.7h3l5.9,9.7v-9.7h3V30.4z"/>
			<path class="st1" d="M85.7,23.4c0,1.4-0.3,2.7-0.8,3.8c-0.5,1.1-1.2,1.9-2.2,2.5c-1,0.6-2,0.9-3.3,0.9c-1.2,0-2.3-0.3-3.3-0.9
				c-1-0.6-1.7-1.4-2.2-2.5c-0.5-1.1-0.8-2.3-0.8-3.7v-0.7c0-1.4,0.3-2.7,0.8-3.8c0.5-1.1,1.3-1.9,2.2-2.5c1-0.6,2-0.9,3.3-0.9
				c1.2,0,2.3,0.3,3.3,0.9c1,0.6,1.7,1.4,2.2,2.5c0.5,1.1,0.8,2.4,0.8,3.8V23.4z M82.6,22.7c0-1.5-0.3-2.7-0.8-3.5
				c-0.6-0.8-1.3-1.2-2.4-1.2c-1,0-1.8,0.4-2.3,1.2c-0.6,0.8-0.8,1.9-0.8,3.5v0.7c0,1.5,0.3,2.7,0.8,3.5c0.6,0.8,1.3,1.2,2.4,1.2
				c1,0,1.8-0.4,2.3-1.2c0.5-0.8,0.8-2,0.8-3.5V22.7z"/>
			<path class="st1" d="M93.1,15.7l3.8,10.6l3.8-10.6h4v14.7h-3v-4l0.3-6.9l-4,10.9h-2.1l-4-10.9l0.3,6.9v4h-3V15.7H93.1z"/>
			<path class="st1" d="M116.7,27.4h-5.3l-1,3h-3.2l5.5-14.7h2.8l5.5,14.7h-3.2L116.7,27.4z M112.3,24.9h3.7l-1.8-5.5L112.3,24.9z"
				/>
			<path class="st1" d="M129,25h-2.4v5.4h-3V15.7h5.5c1.7,0,3.1,0.4,4,1.2c0.9,0.8,1.4,1.9,1.4,3.3c0,1-0.2,1.8-0.7,2.5
				s-1.1,1.2-2,1.6l3.2,6v0.1h-3.2L129,25z M126.6,22.6h2.4c0.8,0,1.3-0.2,1.8-0.6c0.4-0.4,0.6-0.9,0.6-1.6c0-0.7-0.2-1.2-0.6-1.6
				c-0.4-0.4-1-0.6-1.8-0.6h-2.4V22.6z"/>
			<path class="st1" d="M149.5,25.5c-0.1,1.6-0.7,2.8-1.7,3.7c-1.1,0.9-2.4,1.4-4.2,1.4c-1.9,0-3.4-0.6-4.4-1.9
				c-1.1-1.3-1.6-3-1.6-5.2v-0.9c0-1.4,0.2-2.7,0.7-3.7c0.5-1.1,1.2-1.9,2.1-2.5c0.9-0.6,2-0.9,3.2-0.9c1.7,0,3.1,0.5,4.1,1.4
				c1,0.9,1.6,2.2,1.8,3.8h-3c-0.1-0.9-0.3-1.6-0.8-2.1c-0.5-0.4-1.1-0.6-2.1-0.6c-1,0-1.8,0.4-2.3,1.1c-0.5,0.7-0.8,1.8-0.8,3.4
				v1.1c0,1.6,0.2,2.7,0.7,3.5c0.5,0.7,1.2,1.1,2.3,1.1c0.9,0,1.6-0.2,2.1-0.6c0.5-0.4,0.7-1.1,0.8-2H149.5z"/>
			<path class="st1" d="M161.1,27.4h-5.3l-1,3h-3.2l5.5-14.7h2.8l5.5,14.7h-3.2L161.1,27.4z M156.6,24.9h3.7l-1.8-5.5L156.6,24.9z"
				/>
		</g>
		<g>
			<path class="st1" d="M57.1,42.5v-5.6h1.6c0.5,0,0.9,0.1,1.3,0.3c0.4,0.2,0.7,0.5,0.9,0.9c0.2,0.4,0.3,0.8,0.3,1.4v0.4
				c0,0.5-0.1,1-0.3,1.4s-0.5,0.7-0.9,0.9c-0.4,0.2-0.8,0.3-1.3,0.3H57.1z M57.9,37.5v4.4h0.8c0.6,0,1-0.2,1.3-0.5
				c0.3-0.4,0.5-0.9,0.5-1.5v-0.3c0-0.6-0.1-1.1-0.4-1.5c-0.3-0.4-0.7-0.5-1.3-0.5H57.9z"/>
			<path class="st1" d="M62.4,37.2c0-0.1,0-0.2,0.1-0.3c0.1-0.1,0.2-0.1,0.3-0.1c0.1,0,0.2,0,0.3,0.1c0.1,0.1,0.1,0.2,0.1,0.3
				c0,0.1,0,0.2-0.1,0.3c-0.1,0.1-0.2,0.1-0.3,0.1c-0.1,0-0.2,0-0.3-0.1C62.4,37.4,62.4,37.3,62.4,37.2z M63.2,42.5h-0.7v-4.1h0.7
				V42.5z"/>
			<path class="st1" d="M65.9,41.5l1-3.2h0.7l-1.5,4.1h-0.5l-1.5-4.1h0.7L65.9,41.5z"/>
			<path class="st1" d="M68.6,37.2c0-0.1,0-0.2,0.1-0.3c0.1-0.1,0.2-0.1,0.3-0.1c0.1,0,0.2,0,0.3,0.1c0.1,0.1,0.1,0.2,0.1,0.3
				c0,0.1,0,0.2-0.1,0.3c-0.1,0.1-0.2,0.1-0.3,0.1c-0.1,0-0.2,0-0.3-0.1C68.6,37.4,68.6,37.3,68.6,37.2z M69.3,42.5h-0.7v-4.1h0.7
				V42.5z"/>
			<path class="st1" d="M73.1,41.4c0-0.2-0.1-0.3-0.2-0.4c-0.1-0.1-0.4-0.2-0.8-0.3s-0.6-0.2-0.9-0.3c-0.2-0.1-0.4-0.2-0.5-0.4
				c-0.1-0.1-0.2-0.3-0.2-0.5c0-0.3,0.1-0.6,0.4-0.9c0.3-0.2,0.7-0.4,1.1-0.4c0.5,0,0.9,0.1,1.1,0.4c0.3,0.2,0.4,0.6,0.4,0.9h-0.7
				c0-0.2-0.1-0.4-0.2-0.5s-0.4-0.2-0.6-0.2c-0.3,0-0.5,0.1-0.6,0.2s-0.2,0.3-0.2,0.4c0,0.2,0.1,0.3,0.2,0.4
				c0.1,0.1,0.4,0.2,0.7,0.2s0.6,0.2,0.9,0.3c0.2,0.1,0.4,0.2,0.5,0.4c0.1,0.2,0.2,0.3,0.2,0.6c0,0.4-0.1,0.7-0.4,0.9
				c-0.3,0.2-0.7,0.3-1.2,0.3c-0.3,0-0.6-0.1-0.9-0.2s-0.5-0.3-0.6-0.5c-0.1-0.2-0.2-0.4-0.2-0.7h0.7c0,0.2,0.1,0.4,0.3,0.6
				c0.2,0.1,0.4,0.2,0.7,0.2c0.3,0,0.5-0.1,0.6-0.2S73.1,41.5,73.1,41.4z"/>
			<path class="st1" d="M75,37.2c0-0.1,0-0.2,0.1-0.3c0.1-0.1,0.2-0.1,0.3-0.1c0.1,0,0.2,0,0.3,0.1c0.1,0.1,0.1,0.2,0.1,0.3
				c0,0.1,0,0.2-0.1,0.3c-0.1,0.1-0.2,0.1-0.3,0.1c-0.1,0-0.2,0-0.3-0.1C75,37.4,75,37.3,75,37.2z M75.8,42.5H75v-4.1h0.7V42.5z"/>
			<path class="st1" d="M76.9,40.3c0-0.4,0.1-0.8,0.2-1.1c0.2-0.3,0.4-0.6,0.7-0.8c0.3-0.2,0.6-0.3,1-0.3c0.6,0,1,0.2,1.4,0.6
				c0.3,0.4,0.5,0.9,0.5,1.6v0c0,0.4-0.1,0.8-0.2,1.1s-0.4,0.6-0.7,0.7s-0.6,0.3-1,0.3c-0.6,0-1-0.2-1.4-0.6
				C77.1,41.6,76.9,41,76.9,40.3L76.9,40.3z M77.6,40.4c0,0.5,0.1,0.8,0.3,1.1c0.2,0.3,0.5,0.4,0.9,0.4c0.4,0,0.6-0.1,0.9-0.4
				c0.2-0.3,0.3-0.7,0.3-1.2c0-0.5-0.1-0.8-0.3-1.1c-0.2-0.3-0.5-0.4-0.9-0.4c-0.3,0-0.6,0.1-0.8,0.4C77.8,39.5,77.6,39.9,77.6,40.4
				z M79.1,36.6H80l-1,1.1l-0.6,0L79.1,36.6z"/>
			<path class="st1" d="M82.5,38.3l0,0.5c0.3-0.4,0.7-0.6,1.2-0.6c0.9,0,1.3,0.5,1.3,1.5v2.7h-0.7v-2.7c0-0.3-0.1-0.5-0.2-0.7
				s-0.3-0.2-0.6-0.2c-0.2,0-0.4,0.1-0.6,0.2c-0.2,0.1-0.3,0.3-0.4,0.5v3h-0.7v-4.1H82.5z"/>
			<path class="st1" d="M91.8,39.9h-2.4v2h2.8v0.6h-3.5v-5.6h3.5v0.6h-2.8v1.8h2.4V39.9z"/>
			<path class="st1" d="M94.8,41.9c0.3,0,0.5-0.1,0.7-0.2c0.2-0.2,0.3-0.3,0.3-0.6h0.7c0,0.2-0.1,0.5-0.2,0.7
				c-0.2,0.2-0.4,0.4-0.6,0.5c-0.3,0.1-0.5,0.2-0.8,0.2c-0.6,0-1-0.2-1.3-0.6c-0.3-0.4-0.5-0.9-0.5-1.5v-0.1c0-0.4,0.1-0.8,0.2-1.1
				c0.1-0.3,0.4-0.6,0.6-0.7c0.3-0.2,0.6-0.3,1-0.3c0.5,0,0.9,0.1,1.2,0.4c0.3,0.3,0.5,0.6,0.5,1.1h-0.7c0-0.3-0.1-0.5-0.3-0.7
				c-0.2-0.2-0.4-0.3-0.7-0.3c-0.4,0-0.6,0.1-0.8,0.4c-0.2,0.3-0.3,0.6-0.3,1.1v0.1c0,0.5,0.1,0.8,0.3,1.1
				C94.2,41.8,94.5,41.9,94.8,41.9z"/>
			<path class="st1" d="M97.3,40.3c0-0.4,0.1-0.8,0.2-1.1c0.2-0.3,0.4-0.6,0.7-0.8c0.3-0.2,0.6-0.3,1-0.3c0.6,0,1,0.2,1.4,0.6
				c0.3,0.4,0.5,0.9,0.5,1.6v0c0,0.4-0.1,0.8-0.2,1.1s-0.4,0.6-0.7,0.7s-0.6,0.3-1,0.3c-0.6,0-1-0.2-1.4-0.6
				C97.5,41.6,97.3,41,97.3,40.3L97.3,40.3z M98,40.4c0,0.5,0.1,0.8,0.3,1.1c0.2,0.3,0.5,0.4,0.9,0.4c0.4,0,0.6-0.1,0.9-0.4
				c0.2-0.3,0.3-0.7,0.3-1.2c0-0.5-0.1-0.8-0.3-1.1c-0.2-0.3-0.5-0.4-0.9-0.4c-0.3,0-0.6,0.1-0.8,0.4C98.1,39.5,98,39.9,98,40.4z"/>
			<path class="st1" d="M102.9,38.3l0,0.5c0.3-0.4,0.7-0.6,1.2-0.6c0.9,0,1.3,0.5,1.3,1.5v2.7h-0.7v-2.7c0-0.3-0.1-0.5-0.2-0.7
				s-0.3-0.2-0.6-0.2c-0.2,0-0.4,0.1-0.6,0.2c-0.2,0.1-0.3,0.3-0.4,0.5v3h-0.7v-4.1H102.9z"/>
			<path class="st1" d="M106.6,40.3c0-0.4,0.1-0.8,0.2-1.1c0.2-0.3,0.4-0.6,0.7-0.8c0.3-0.2,0.6-0.3,1-0.3c0.6,0,1,0.2,1.4,0.6
				c0.3,0.4,0.5,0.9,0.5,1.6v0c0,0.4-0.1,0.8-0.2,1.1s-0.4,0.6-0.7,0.7s-0.6,0.3-1,0.3c-0.6,0-1-0.2-1.4-0.6
				C106.8,41.6,106.6,41,106.6,40.3L106.6,40.3z M107.3,40.4c0,0.5,0.1,0.8,0.3,1.1c0.2,0.3,0.5,0.4,0.9,0.4c0.4,0,0.6-0.1,0.9-0.4
				c0.2-0.3,0.3-0.7,0.3-1.2c0-0.5-0.1-0.8-0.3-1.1c-0.2-0.3-0.5-0.4-0.9-0.4c-0.3,0-0.6,0.1-0.8,0.4
				C107.4,39.5,107.3,39.9,107.3,40.4z M108.8,36.6h0.9l-1,1.1l-0.6,0L108.8,36.6z"/>
			<path class="st1" d="M112.2,38.3l0,0.5c0.3-0.4,0.7-0.5,1.2-0.5c0.6,0,1,0.2,1.2,0.7c0.1-0.2,0.3-0.4,0.5-0.5
				c0.2-0.1,0.5-0.2,0.8-0.2c0.9,0,1.4,0.5,1.4,1.4v2.8h-0.7v-2.7c0-0.3-0.1-0.5-0.2-0.7c-0.1-0.1-0.4-0.2-0.7-0.2
				c-0.3,0-0.5,0.1-0.7,0.2c-0.2,0.2-0.3,0.4-0.3,0.6v2.7H114v-2.7c0-0.6-0.3-0.9-0.9-0.9c-0.5,0-0.8,0.2-1,0.6v3h-0.7v-4.1H112.2z"
				/>
			<path class="st1" d="M118.6,37.2c0-0.1,0-0.2,0.1-0.3c0.1-0.1,0.2-0.1,0.3-0.1c0.1,0,0.2,0,0.3,0.1c0.1,0.1,0.1,0.2,0.1,0.3
				c0,0.1,0,0.2-0.1,0.3c-0.1,0.1-0.2,0.1-0.3,0.1c-0.1,0-0.2,0-0.3-0.1C118.6,37.4,118.6,37.3,118.6,37.2z M119.4,42.5h-0.7v-4.1
				h0.7V42.5z"/>
			<path class="st1" d="M122.4,41.9c0.3,0,0.5-0.1,0.7-0.2c0.2-0.2,0.3-0.3,0.3-0.6h0.7c0,0.2-0.1,0.5-0.2,0.7
				c-0.2,0.2-0.4,0.4-0.6,0.5c-0.3,0.1-0.5,0.2-0.8,0.2c-0.6,0-1-0.2-1.3-0.6c-0.3-0.4-0.5-0.9-0.5-1.5v-0.1c0-0.4,0.1-0.8,0.2-1.1
				c0.1-0.3,0.4-0.6,0.6-0.7c0.3-0.2,0.6-0.3,1-0.3c0.5,0,0.9,0.1,1.2,0.4c0.3,0.3,0.5,0.6,0.5,1.1h-0.7c0-0.3-0.1-0.5-0.3-0.7
				c-0.2-0.2-0.4-0.3-0.7-0.3c-0.4,0-0.6,0.1-0.8,0.4c-0.2,0.3-0.3,0.6-0.3,1.1v0.1c0,0.5,0.1,0.8,0.3,1.1
				C121.7,41.8,122,41.9,122.4,41.9z"/>
			<path class="st1" d="M127.6,42.5c0-0.1-0.1-0.2-0.1-0.4c-0.3,0.3-0.7,0.5-1.2,0.5c-0.4,0-0.7-0.1-1-0.3c-0.3-0.2-0.4-0.5-0.4-0.9
				c0-0.4,0.2-0.8,0.5-1c0.3-0.2,0.8-0.4,1.4-0.4h0.7v-0.3c0-0.2-0.1-0.4-0.2-0.6c-0.1-0.1-0.4-0.2-0.7-0.2c-0.3,0-0.5,0.1-0.6,0.2
				c-0.2,0.1-0.3,0.3-0.3,0.5H125c0-0.2,0.1-0.4,0.2-0.6c0.1-0.2,0.3-0.3,0.6-0.5c0.3-0.1,0.5-0.2,0.8-0.2c0.5,0,0.9,0.1,1.1,0.4
				c0.3,0.2,0.4,0.6,0.4,1v1.9c0,0.4,0,0.7,0.1,0.9v0.1H127.6z M126.4,41.9c0.2,0,0.4-0.1,0.6-0.2s0.3-0.3,0.4-0.4v-0.8H127
				c-0.9,0-1.3,0.3-1.3,0.8c0,0.2,0.1,0.4,0.2,0.5C126,41.8,126.2,41.9,126.4,41.9z"/>
			<path class="st1" d="M133.1,41.4l1-3.1h0.8l-1.7,4.8c-0.3,0.7-0.7,1-1.2,1l-0.1,0l-0.3,0v-0.6l0.2,0c0.2,0,0.4,0,0.6-0.1
				c0.1-0.1,0.2-0.3,0.3-0.5l0.2-0.4l-1.5-4.1h0.8L133.1,41.4z"/>
			<path class="st1" d="M141.7,37.5h-1.8v5h-0.7v-5h-1.8v-0.6h4.3V37.5z"/>
			<path class="st1" d="M144.3,42.5c-0.6,0-1-0.2-1.4-0.6s-0.5-0.9-0.5-1.5v-0.1c0-0.4,0.1-0.8,0.2-1.1s0.4-0.6,0.7-0.8
				c0.3-0.2,0.6-0.3,0.9-0.3c0.5,0,1,0.2,1.3,0.5s0.4,0.9,0.4,1.5v0.3h-2.8c0,0.4,0.1,0.7,0.4,1c0.2,0.3,0.5,0.4,0.9,0.4
				c0.2,0,0.5-0.1,0.6-0.2c0.2-0.1,0.3-0.2,0.5-0.4l0.4,0.3C145.6,42.3,145,42.5,144.3,42.5z M144.2,38.8c-0.3,0-0.5,0.1-0.7,0.3
				c-0.2,0.2-0.3,0.5-0.4,0.9h2.1v-0.1c0-0.4-0.1-0.6-0.3-0.8C144.8,38.9,144.5,38.8,144.2,38.8z M144.6,36.6h0.9l-1,1.1l-0.6,0
				L144.6,36.6z"/>
			<path class="st1" d="M148.7,41.9c0.3,0,0.5-0.1,0.7-0.2c0.2-0.2,0.3-0.3,0.3-0.6h0.7c0,0.2-0.1,0.5-0.2,0.7
				c-0.2,0.2-0.4,0.4-0.6,0.5c-0.3,0.1-0.5,0.2-0.8,0.2c-0.6,0-1-0.2-1.3-0.6c-0.3-0.4-0.5-0.9-0.5-1.5v-0.1c0-0.4,0.1-0.8,0.2-1.1
				c0.1-0.3,0.4-0.6,0.6-0.7c0.3-0.2,0.6-0.3,1-0.3c0.5,0,0.9,0.1,1.2,0.4c0.3,0.3,0.5,0.6,0.5,1.1h-0.7c0-0.3-0.1-0.5-0.3-0.7
				c-0.2-0.2-0.4-0.3-0.7-0.3c-0.4,0-0.6,0.1-0.8,0.4c-0.2,0.3-0.3,0.6-0.3,1.1v0.1c0,0.5,0.1,0.8,0.3,1.1
				C148,41.8,148.3,41.9,148.7,41.9z"/>
			<path class="st1" d="M152,38.3l0,0.5c0.3-0.4,0.7-0.6,1.2-0.6c0.9,0,1.3,0.5,1.3,1.5v2.7h-0.7v-2.7c0-0.3-0.1-0.5-0.2-0.7
				s-0.3-0.2-0.6-0.2c-0.2,0-0.4,0.1-0.6,0.2c-0.2,0.1-0.3,0.3-0.4,0.5v3h-0.7v-4.1H152z"/>
			<path class="st1" d="M155.9,37.2c0-0.1,0-0.2,0.1-0.3c0.1-0.1,0.2-0.1,0.3-0.1c0.1,0,0.2,0,0.3,0.1c0.1,0.1,0.1,0.2,0.1,0.3
				c0,0.1,0,0.2-0.1,0.3c-0.1,0.1-0.2,0.1-0.3,0.1c-0.1,0-0.2,0-0.3-0.1C155.9,37.4,155.9,37.3,155.9,37.2z M156.7,42.5H156v-4.1
				h0.7V42.5z"/>
			<path class="st1" d="M159.7,41.9c0.3,0,0.5-0.1,0.7-0.2c0.2-0.2,0.3-0.3,0.3-0.6h0.7c0,0.2-0.1,0.5-0.2,0.7
				c-0.2,0.2-0.4,0.4-0.6,0.5c-0.3,0.1-0.5,0.2-0.8,0.2c-0.6,0-1-0.2-1.3-0.6c-0.3-0.4-0.5-0.9-0.5-1.5v-0.1c0-0.4,0.1-0.8,0.2-1.1
				c0.1-0.3,0.4-0.6,0.6-0.7c0.3-0.2,0.6-0.3,1-0.3c0.5,0,0.9,0.1,1.2,0.4c0.3,0.3,0.5,0.6,0.5,1.1h-0.7c0-0.3-0.1-0.5-0.3-0.7
				c-0.2-0.2-0.4-0.3-0.7-0.3c-0.4,0-0.6,0.1-0.8,0.4c-0.2,0.3-0.3,0.6-0.3,1.1v0.1c0,0.5,0.1,0.8,0.3,1.1
				C159.1,41.8,159.3,41.9,159.7,41.9z"/>
			<path class="st1" d="M164.9,42.5c0-0.1-0.1-0.2-0.1-0.4c-0.3,0.3-0.7,0.5-1.2,0.5c-0.4,0-0.7-0.1-1-0.3c-0.3-0.2-0.4-0.5-0.4-0.9
				c0-0.4,0.2-0.8,0.5-1c0.3-0.2,0.8-0.4,1.4-0.4h0.7v-0.3c0-0.2-0.1-0.4-0.2-0.6c-0.1-0.1-0.4-0.2-0.7-0.2c-0.3,0-0.5,0.1-0.6,0.2
				c-0.2,0.1-0.3,0.3-0.3,0.5h-0.7c0-0.2,0.1-0.4,0.2-0.6c0.1-0.2,0.3-0.3,0.6-0.5c0.3-0.1,0.5-0.2,0.8-0.2c0.5,0,0.9,0.1,1.1,0.4
				c0.3,0.2,0.4,0.6,0.4,1v1.9c0,0.4,0,0.7,0.1,0.9v0.1H164.9z M163.8,41.9c0.2,0,0.4-0.1,0.6-0.2s0.3-0.3,0.4-0.4v-0.8h-0.6
				c-0.9,0-1.3,0.3-1.3,0.8c0,0.2,0.1,0.4,0.2,0.5C163.3,41.8,163.5,41.9,163.8,41.9z"/>
		</g>
	</g>
	<g>
		<path class="st2" d="M4.3,38.3v-8.8L18,37.4v8.8L4.3,38.3L4.3,38.3z"/>
		<polygon class="st2" points="40.2,46.2 4.3,25.5 4.3,16.6 40.2,37.4 40.2,46.2 		"/>
		<polygon class="st2" points="40.2,24.5 40.2,33.4 4.3,12.6 4.3,3.8 40.2,24.5 		"/>
		<polygon class="st2" points="40.2,11.7 40.2,20.5 26.5,12.6 26.5,3.8 40.2,11.7 		"/>
	</g>
</g>
</svg>
